<?xml version="1.0" encoding="UTF-8"?><svg version="1.1" viewBox="0 0 190 60" xmlns="http://www.w3.org/2000/svg"><g id="DPG" transform="translate(.513 .588)" fill="#fff" fill-rule="evenodd"><path id="DPL" d="m19.286 35v-2.99h-0.092c-0.736004 1.165339-1.786326 2.06233-3.151 2.691-1.364673 0.62867-2.813659 0.943-4.347 0.943-1.7173419 0-3.2506599-0.33733-4.6-1.012s-2.491662-1.571661-3.427-2.691-1.6483309-2.414993-2.139-3.887-0.736-3.005325-0.736-4.6 0.2529975-3.120326 0.759-4.577 1.226662-2.736995 2.162-3.841 2.0699933-1.977997 3.404-2.622 2.8289917-0.966 4.485-0.966c1.686675 0 3.112661 0.321997 4.278 0.966s2.069997 1.349329 2.714 2.116h0.092v-14.306h7.544v34.776zm-0.276-11.5c0-0.736004-0.130332-1.456663-0.391-2.162s-0.628664-1.333997-1.104-1.886-1.05033-0.996665-1.725-1.334-1.441329-0.506-2.3-0.506c-0.889338 0-1.67133 0.168665-2.346 0.506s-1.2419977 0.774331-1.702 1.311-0.8049988 1.157663-1.035 1.863c-0.2300011 0.705337-0.345 1.425996-0.345 2.162s0.1149989 1.46433 0.345 2.185c0.2300012 0.72067 0.5749977 1.356997 1.035 1.909s1.02733 0.996665 1.702 1.334 1.456662 0.506 2.346 0.506c0.858671 0 1.62533-0.168665 2.3-0.506s1.249664-0.781997 1.725-1.334 0.843332-1.180663 1.104-1.886 0.391-1.425996 0.391-2.162zm38.686-0.046c0 1.594675-0.245331 3.127993-0.736 4.6s-1.203662 2.767661-2.139 3.887-2.07766 2.01633-3.427 2.691-2.882658 1.012-4.6 1.012c-1.410674 0-2.74466-0.283664-4.002-0.851s-2.238663-1.341662-2.944-2.323h-0.092v13.57h-7.544v-33.948h7.176v2.806h0.138c0.705337-0.920005 1.678994-1.724997 2.921-2.415 1.242006-0.690004 2.706325-1.035 4.393-1.035 1.656008 0 3.15866 0.321997 4.508 0.966s2.491662 1.517995 3.427 2.622 1.655997 2.384326 2.162 3.841c0.506002 1.456674 0.759 2.982325 0.759 4.577zm-7.314 0c0-0.736004-0.114999-1.456663-0.345-2.162s-0.567331-1.326331-1.012-1.863-1.00433-0.973665-1.679-1.311-1.456662-0.506-2.346-0.506c-0.858671 0-1.62533 0.168665-2.3 0.506s-1.249664 0.781997-1.725 1.334-0.843332 1.180663-1.104 1.886-0.391 1.425996-0.391 2.162 0.130332 1.456663 0.391 2.162 0.628664 1.333997 1.104 1.886 1.05033 0.996665 1.725 1.334 1.441329 0.506 2.3 0.506c0.889338 0 1.67133-0.168665 2.346-0.506s1.234331-0.781997 1.679-1.334 0.781999-1.18833 1.012-1.909 0.345-1.448996 0.345-2.185zm25.576 1.564h-0.966c-0.828004 0-1.663662 0.03833-2.507 0.115s-1.594663 0.222332-2.254 0.437-1.203664 0.528998-1.633 0.943c-0.429335 0.414002-0.644 0.95833-0.644 1.633 0 0.429336 0.09967 0.797332 0.299 1.104 0.199334 0.306668 0.452332 0.551999 0.759 0.736s0.659331 0.314333 1.058 0.391c0.398669 0.07667 0.781998 0.115 1.15 0.115 1.533341 0 2.706329-0.421663 3.519-1.265 0.812671-0.843338 1.219-1.98566 1.219-3.427zm-13.846-9.798c1.34934-1.288006 2.920991-2.253997 4.715-2.898s3.626324-0.966 5.497-0.966c1.93201 0 3.564993 0.237664 4.899 0.713s2.414996 1.211328 3.243 2.208 1.433665 2.253992 1.817 3.772 0.575 3.319656 0.575 5.405v11.546h-6.9v-2.438h-0.138c-0.58267 0.950671-1.464327 1.686664-2.645 2.208s-2.460993 0.782-3.841 0.782c-0.920005 0-1.870662-0.122665-2.852-0.368s-1.878329-0.643997-2.691-1.196-1.479664-1.287995-2.001-2.208-0.782-2.05466-0.782-3.404c0-1.656008 0.452329-2.989995 1.357-4.002s2.069993-1.793997 3.496-2.346 3.012991-0.919999 4.761-1.104 3.449992-0.276 5.106-0.276v-0.368c0-1.134672-0.398663-1.970331-1.196-2.507s-1.778661-0.805-2.944-0.805c-1.073339 0-2.108328 0.229998-3.105 0.69s-1.847663 1.011997-2.553 1.656zm39.836 3.634c-0.61334-0.58267-1.334-1.073331-2.162-1.472-0.828004-0.398669-1.701995-0.598-2.622-0.598-0.705337 0-1.356997 0.137999-1.955 0.414s-0.897 0.75133-0.897 1.426c0 0.644003 0.329663 1.103999 0.989 1.38s1.724993 0.582665 3.197 0.92c0.858671 0.184001 1.725 0.444665 2.599 0.782s1.66366 0.781997 2.369 1.334 1.27266 1.226663 1.702 2.024 0.644 1.747994 0.644 2.852c0 1.44134-0.29133 2.660328-0.874 3.657s-1.34166 1.801664-2.277 2.415-1.98566 1.057999-3.151 1.334c-1.165339 0.276001-2.330661 0.414-3.496 0.414-1.870676 0-3.702991-0.298997-5.497-0.897s-3.288994-1.479661-4.485-2.645l4.232-4.462c0.67467 0.736004 1.502662 1.349331 2.484 1.84s2.023995 0.736 3.128 0.736c0.613336 0 1.218997-0.145665 1.817-0.437s0.897-0.804996 0.897-1.541c0-0.705337-0.367996-1.226665-1.104-1.564s-1.885992-0.689998-3.45-1.058c-0.797337-0.184001-1.594663-0.429332-2.392-0.736s-1.51033-0.720664-2.139-1.242-1.142331-1.16533-1.541-1.932c-0.398669-0.766671-0.598-1.686661-0.598-2.76 0-1.380007 0.29133-2.552995 0.874-3.519s1.333995-1.755664 2.254-2.369 1.939661-1.065665 3.059-1.357 2.230995-0.437 3.335-0.437c1.717342 0 3.39632 0.268331 5.037 0.805s3.02833 1.341661 4.163 2.415zm16.422-1.104v8.74c0 1.073339 0.207 1.878331 0.621 2.415s1.15766 0.805 2.231 0.805c0.368 0 0.759-0.03067 1.173-0.092s0.759-0.153333 1.035-0.276l0.092 5.52c-0.52134 0.184001-1.18066 0.344999-1.978 0.483s-1.59466 0.207-2.392 0.207c-1.53334 0-2.82133-0.191665-3.864-0.575s-1.87833-0.93533-2.507-1.656-1.081-1.579328-1.357-2.576-0.414-2.108327-0.414-3.335v-9.66h-3.68v-5.658h3.634v-6.026h7.406v6.026h5.382v5.658zm24.702 3.174c0-1.196006-0.37566-2.223329-1.127-3.082s-1.87833-1.288-3.381-1.288c-0.736 0-1.41066 0.114999-2.024 0.345s-1.15 0.544331-1.61 0.943-0.828 0.866331-1.104 1.403-0.42933 1.09633-0.46 1.679zm6.946 2.898v0.92c0 0.306668-0.0153 0.597999-0.046 0.874h-16.606c0.0613 0.644003 0.253 1.226664 0.575 1.748s0.736 0.973665 1.242 1.357 1.07333 0.682332 1.702 0.897 1.28033 0.322 1.955 0.322c1.19601 0 2.208-0.222331 3.036-0.667s1.50266-1.019663 2.024-1.725l5.244 3.312c-1.07334 1.564008-2.49166 2.767662-4.255 3.611-1.76334 0.843337-3.81032 1.265-6.141 1.265-1.71734 0-3.34266-0.268331-4.876-0.805s-2.87499-1.318662-4.025-2.346c-1.15001-1.027339-2.05466-2.292326-2.714-3.795s-0.989-3.21999-0.989-5.152c0-1.870676 0.322-3.564992 0.966-5.083s1.51799-2.805995 2.622-3.864 2.40733-1.87833 3.91-2.461 3.12799-0.874 4.876-0.874c1.68667 0 3.23533 0.283664 4.646 0.851s2.622 1.387661 3.634 2.461 1.80166 2.376659 2.369 3.91 0.851 3.281323 0.851 5.244z"/><path id="DPT" d="m47.795 49.24v-1.44h1.26v-2.085h1.77v2.085h1.8v1.44h-1.8v3.345c0 0.320002 0.0575 0.584999 0.1725 0.795 0.115001 0.210001 0.372498 0.315 0.7725 0.315 0.120001 0 0.249999-0.0125 0.39-0.0375s0.264999-0.0625 0.375-0.1125l0.06 1.41c-0.160001 0.06-0.349999 0.1075-0.57 0.1425s-0.429999 0.0525-0.63 0.0525c-0.480002 0-0.869998-0.0675-1.17-0.2025-0.300002-0.135001-0.537499-0.319999-0.7125-0.555s-0.295-0.504999-0.36-0.81c-0.065-0.305002-0.0975-0.632498-0.0975-0.9825v-3.36zm10.14-1.65c0.470002 0 0.872498 0.0825 1.2075 0.2475 0.335002 0.165001 0.609999 0.382499 0.825 0.6525s0.372499 0.579998 0.4725 0.93c0.1 0.350002 0.15 0.709998 0.15 1.08v4.5h-1.8v-3.96c0-0.210001-0.015-0.427499-0.045-0.6525s-0.0925-0.429999-0.1875-0.615-0.229999-0.337499-0.405-0.4575-0.407499-0.18-0.6975-0.18-0.539999 0.055-0.75 0.165c-0.210001 0.110001-0.384999 0.257499-0.525 0.4425s-0.245 0.392499-0.315 0.6225-0.105 0.464999-0.105 0.705v3.93h-1.8v-11.34h1.8v5.145h0.03c0.07-0.150001 0.172499-0.297499 0.3075-0.4425s0.292499-0.274999 0.4725-0.39 0.384999-0.2075 0.615-0.2775 0.479999-0.105 0.75-0.105zm9.825 3.09c0-0.230001-0.0325-0.449999-0.0975-0.66s-0.167499-0.394999-0.3075-0.555-0.317499-0.2875-0.5325-0.3825-0.467499-0.1425-0.7575-0.1425c-0.540003 0-0.997498 0.162498-1.3725 0.4875s-0.5825 0.742497-0.6225 1.2525zm1.8 0.81v0.24c0 0.08-5e-3 0.16-0.015 0.24h-5.475c0.02 0.260001 0.0875 0.497499 0.2025 0.7125 0.115001 0.215001 0.267499 0.399999 0.4575 0.555s0.404999 0.2775 0.645 0.3675 0.489999 0.135 0.75 0.135c0.450002 0 0.829998-0.0825 1.14-0.2475 0.310001-0.165001 0.564999-0.392499 0.765-0.6825l1.2 0.96c-0.710004 0.960005-1.739993 1.44-3.09 1.44-0.560003 0-1.074998-0.0875-1.545-0.2625-0.470002-0.175001-0.877498-0.422498-1.2225-0.7425s-0.614999-0.712498-0.81-1.1775-0.2925-0.992497-0.2925-1.5825c0-0.580003 0.0975-1.107498 0.2925-1.5825 0.195001-0.475002 0.462498-0.879998 0.8025-1.215s0.742498-0.594999 1.2075-0.78 0.967497-0.2775 1.5075-0.2775c0.500003 0 0.962498 0.0825 1.3875 0.2475 0.425002 0.165001 0.792498 0.409998 1.1025 0.735s0.552499 0.729998 0.7275 1.215 0.2625 1.052497 0.2625 1.7025zm5.58-7.11h3.765c0.690003 0 1.384996 0.09 2.085 0.27 0.700004 0.180001 1.329997 0.477498 1.89 0.8925s1.014998 0.959997 1.365 1.635 0.525 1.512495 0.525 2.5125c0 0.930005-0.174998 1.729997-0.525 2.4s-0.804997 1.219998-1.365 1.65-1.189996 0.747499-1.89 0.9525-1.394997 0.3075-2.085 0.3075h-3.765zm3.465 8.97c0.490002 0 0.979997-0.0575 1.47-0.1725 0.490002-0.115001 0.932498-0.309999 1.3275-0.585s0.717499-0.647498 0.9675-1.1175 0.375-1.064996 0.375-1.785c0-0.760004-0.124999-1.379998-0.375-1.86s-0.572498-0.854999-0.9675-1.125-0.837498-0.455-1.3275-0.555c-0.490003-0.100001-0.979998-0.15-1.47-0.15h-1.575v7.35zm9.735-5.55v7.635c0 0.430002-0.035 0.837498-0.105 1.2225s-0.202499 0.719999-0.3975 1.005-0.459998 0.512499-0.795 0.6825-0.772497 0.255-1.3125 0.255c-0.150001 0-0.299999-0.01-0.45-0.03s-0.27-0.04-0.36-0.06l0.15-1.53c0.08 0.02 0.164999 0.035 0.255 0.045 0.09 0.01 0.17 0.015 0.24 0.015 0.210001 0 0.379999-0.04 0.51-0.12s0.23-0.189999 0.3-0.33 0.115-0.302499 0.135-0.4875 0.03-0.382499 0.03-0.5925v-7.71zm-2.055-2.445c0-0.290001 0.107499-0.542499 0.3225-0.7575s0.487498-0.3225 0.8175-0.3225 0.607499 0.102499 0.8325 0.3075 0.3375 0.462498 0.3375 0.7725-0.112499 0.567499-0.3375 0.7725-0.502498 0.3075-0.8325 0.3075-0.602499-0.107499-0.8175-0.3225-0.3225-0.467499-0.3225-0.7575zm8.715 8.73h-0.045c-0.180001 0.320002-0.469998 0.582499-0.87 0.7875s-0.854998 0.3075-1.365 0.3075c-0.290002 0-0.592498-0.0375-0.9075-0.1125s-0.604999-0.199999-0.87-0.375-0.484999-0.404999-0.66-0.69-0.2625-0.637498-0.2625-1.0575c0-0.540003 0.152499-0.969998 0.4575-1.29s0.697498-0.564999 1.1775-0.735 1.012497-0.2825 1.5975-0.3375 1.157497-0.0825 1.7175-0.0825v-0.18c0-0.450002-0.162498-0.782499-0.4875-0.9975s-0.712498-0.3225-1.1625-0.3225c-0.380002 0-0.744998 0.08-1.095 0.24-0.350002 0.160001-0.639999 0.354999-0.87 0.585l-0.93-1.095c0.410002-0.380002 0.882497-0.664999 1.4175-0.855s1.077497-0.285 1.6275-0.285c0.640003 0 1.167498 0.09 1.5825 0.27 0.415002 0.180001 0.742499 0.414999 0.9825 0.705s0.407499 0.614998 0.5025 0.975c0.095 0.360002 0.1425 0.719998 0.1425 1.08v4.38h-1.68zm-0.03-2.37h-0.405c-0.290002 0-0.594998 0.0125-0.915 0.0375s-0.614999 0.08-0.885 0.165-0.494999 0.204999-0.675 0.36-0.27 0.367499-0.27 0.6375c0 0.170001 0.0375 0.312499 0.1125 0.4275s0.172499 0.2075 0.2925 0.2775 0.254999 0.12 0.405 0.15 0.299999 0.045 0.45 0.045c0.620003 0 1.089998-0.164998 1.41-0.495s0.48-0.779997 0.48-1.35zm3.81-3.915h1.71v1.155h0.03c0.16-0.360002 0.4375-0.677499 0.8325-0.9525s0.8625-0.4125 1.4025-0.4125c0.47 0 0.8725 0.0825 1.2075 0.2475 0.335 0.165001 0.61 0.382499 0.825 0.6525s0.3725 0.579998 0.4725 0.93 0.15 0.709998 0.15 1.08v4.5h-1.8v-3.99c0-0.210001-0.015-0.429999-0.045-0.66s-0.095-0.437499-0.195-0.6225-0.2375-0.337499-0.4125-0.4575-0.4075-0.18-0.6975-0.18-0.54 0.0575-0.75 0.1725c-0.21 0.115001-0.3825 0.262499-0.5175 0.4425s-0.2375 0.387499-0.3075 0.6225-0.105 0.472499-0.105 0.7125v3.96h-1.8zm16.05 0v6.555c0 0.650003-0.08 1.237497-0.24 1.7625s-0.4075 0.969998-0.7425 1.335-0.7575 0.647499-1.2675 0.8475-1.115 0.3-1.815 0.3c-0.29 0-0.5975-0.025-0.9225-0.075s-0.645-0.125-0.96-0.225c-0.315-0.100001-0.6175-0.224999-0.9075-0.375s-0.55-0.319999-0.78-0.51l1.035-1.395c0.35 0.330002 0.745 0.582499 1.185 0.7575s0.885 0.2625 1.335 0.2625c0.43 0 0.7925-0.0625 1.0875-0.1875 0.295-0.125001 0.53-0.297499 0.705-0.5175s0.3-0.479999 0.375-0.78c0.075-0.300002 0.1125-0.629998 0.1125-0.99v-0.525h-0.03c-0.26 0.350002-0.5925 0.617499-0.9975 0.8025s-0.8575 0.2775-1.3575 0.2775c-0.54 0-1.03-0.1-1.47-0.3-0.44-0.200001-0.8125-0.469998-1.1175-0.81s-0.5425-0.737498-0.7125-1.1925-0.255-0.937497-0.255-1.4475c0-0.520003 0.0825-1.009998 0.2475-1.47s0.4-0.859998 0.705-1.2 0.675-0.609999 1.11-0.81 0.9225-0.3 1.4625-0.3c0.51 0 0.985 0.104999 1.425 0.315s0.79 0.534998 1.05 0.975h0.03v-1.08zm-3.84 1.26c-0.33 0-0.6225 0.06-0.8775 0.18-0.255 0.120001-0.47 0.282499-0.645 0.4875s-0.31 0.447499-0.405 0.7275-0.1425 0.579998-0.1425 0.9c0 0.290001 0.0475 0.569999 0.1425 0.84s0.23 0.512499 0.405 0.7275 0.39 0.387499 0.645 0.5175 0.5425 0.195 0.8625 0.195c0.33 0 0.6275-0.0625 0.8925-0.1875 0.265-0.125001 0.49-0.292499 0.675-0.5025s0.3275-0.452499 0.4275-0.7275 0.15-0.562499 0.15-0.8625c0-0.310002-0.05-0.604999-0.15-0.885s-0.2425-0.524999-0.4275-0.735-0.4075-0.374999-0.6675-0.495-0.555-0.18-0.885-0.18zm5.58 2.31c0-0.570003 0.1025-1.087498 0.3075-1.5525s0.4825-0.862498 0.8325-1.1925 0.765-0.584999 1.245-0.765 0.99-0.27 1.53-0.27 1.05 0.09 1.53 0.27c0.48 0.180001 0.895 0.434998 1.245 0.765s0.6275 0.727498 0.8325 1.1925 0.3075 0.982497 0.3075 1.5525-0.1025 1.089998-0.3075 1.56-0.4825 0.872498-0.8325 1.2075-0.765 0.597499-1.245 0.7875-0.99 0.285-1.53 0.285-1.05-0.095-1.53-0.285c-0.48-0.190001-0.895-0.452498-1.245-0.7875s-0.6275-0.737498-0.8325-1.2075-0.3075-0.989997-0.3075-1.56zm1.83 0c0 0.280001 0.0425 0.559999 0.1275 0.84s0.2125 0.529999 0.3825 0.75 0.385 0.399999 0.645 0.54 0.57 0.21 0.93 0.21 0.67-0.07 0.93-0.21c0.26-0.140001 0.475-0.319999 0.645-0.54s0.2975-0.469999 0.3825-0.75 0.1275-0.559999 0.1275-0.84-0.0425-0.557499-0.1275-0.8325-0.2125-0.522499-0.3825-0.7425-0.385-0.397499-0.645-0.5325-0.57-0.2025-0.93-0.2025-0.67 0.0675-0.93 0.2025c-0.26 0.135001-0.475 0.312499-0.645 0.5325s-0.2975 0.467499-0.3825 0.7425-0.1275 0.552499-0.1275 0.8325zm13.215-3.57v1.005h0.045c0.09-0.140001 0.2075-0.282499 0.3525-0.4275s0.3225-0.274999 0.5325-0.39 0.4475-0.21 0.7125-0.285 0.5625-0.1125 0.8925-0.1125c0.51 0 0.98 0.0975 1.41 0.2925 0.43 0.195001 0.8 0.462498 1.11 0.8025s0.55 0.739998 0.72 1.2 0.255 0.954997 0.255 1.485-0.0825 1.027498-0.2475 1.4925-0.4 0.869998-0.705 1.215-0.675 0.619999-1.11 0.825-0.9275 0.3075-1.4775 0.3075c-0.51 0-0.9775-0.104999-1.4025-0.315s-0.7525-0.494998-0.9825-0.855h-0.03v4.56h-1.8v-10.8zm4.2 3.57c0-0.280001-0.0425-0.557499-0.1275-0.8325s-0.2125-0.522499-0.3825-0.7425-0.385-0.397499-0.645-0.5325-0.565-0.2025-0.915-0.2025c-0.33 0-0.625 0.07-0.885 0.21-0.26 0.140001-0.4825 0.319999-0.6675 0.54s-0.325 0.469999-0.42 0.75-0.1425 0.559999-0.1425 0.84 0.0475 0.557499 0.1425 0.8325 0.235 0.522499 0.42 0.7425 0.4075 0.397499 0.6675 0.5325 0.555 0.2025 0.885 0.2025c0.35 0 0.655-0.07 0.915-0.21 0.26-0.140001 0.475-0.319999 0.645-0.54s0.2975-0.469999 0.3825-0.75 0.1275-0.559999 0.1275-0.84zm8.04 2.715h-0.045c-0.18 0.320002-0.47 0.582499-0.87 0.7875s-0.855 0.3075-1.365 0.3075c-0.29 0-0.5925-0.0375-0.9075-0.1125s-0.605-0.199999-0.87-0.375-0.485-0.404999-0.66-0.69-0.2625-0.637498-0.2625-1.0575c0-0.540003 0.1525-0.969998 0.4575-1.29s0.6975-0.564999 1.1775-0.735 1.0125-0.2825 1.5975-0.3375 1.1575-0.0825 1.7175-0.0825v-0.18c0-0.450002-0.1625-0.782499-0.4875-0.9975s-0.7125-0.3225-1.1625-0.3225c-0.38 0-0.745 0.08-1.095 0.24-0.35 0.160001-0.64 0.354999-0.87 0.585l-0.93-1.095c0.41-0.380002 0.8825-0.664999 1.4175-0.855s1.0775-0.285 1.6275-0.285c0.64 0 1.1675 0.09 1.5825 0.27 0.415 0.180001 0.7425 0.414999 0.9825 0.705s0.4075 0.614998 0.5025 0.975 0.1425 0.719998 0.1425 1.08v4.38h-1.68zm-0.03-2.37h-0.405c-0.29 0-0.595 0.0125-0.915 0.0375s-0.615 0.08-0.885 0.165-0.495 0.204999-0.675 0.36-0.27 0.367499-0.27 0.6375c0 0.170001 0.0375 0.312499 0.1125 0.4275s0.1725 0.2075 0.2925 0.2775 0.255 0.12 0.405 0.15 0.3 0.045 0.45 0.045c0.62 0 1.09-0.164998 1.41-0.495s0.48-0.779997 0.48-1.35zm7.755-1.995c-0.16-0.210001-0.38-0.392499-0.66-0.5475s-0.585-0.2325-0.915-0.2325c-0.29 0-0.555 0.06-0.795 0.18-0.24 0.120001-0.36 0.319999-0.36 0.6s0.1325 0.477499 0.3975 0.5925 0.6525 0.232499 1.1625 0.3525c0.27 0.06 0.5425 0.139999 0.8175 0.24s0.525 0.232499 0.75 0.3975 0.4075 0.369999 0.5475 0.615 0.21 0.542498 0.21 0.8925c0 0.440002-0.0825 0.812498-0.2475 1.1175-0.165 0.305001-0.385 0.552499-0.66 0.7425s-0.595 0.3275-0.96 0.4125-0.7425 0.1275-1.1325 0.1275c-0.56 0-1.105-0.102499-1.635-0.3075s-0.97-0.497498-1.32-0.8775l1.185-1.11c0.2 0.260001 0.46 0.474999 0.78 0.645s0.675 0.255 1.065 0.255c0.13 0 0.2625-0.015 0.3975-0.045s0.26-0.0775 0.375-0.1425 0.2075-0.152499 0.2775-0.2625 0.105-0.244999 0.105-0.405c0-0.300002-0.1375-0.514999-0.4125-0.645s-0.6875-0.259999-1.2375-0.39c-0.27-0.06-0.5325-0.1375-0.7875-0.2325s-0.4825-0.219999-0.6825-0.375-0.36-0.347499-0.48-0.5775-0.18-0.514998-0.18-0.855c0-0.400002 0.0825-0.744999 0.2475-1.035s0.3825-0.527499 0.6525-0.7125 0.575-0.3225 0.915-0.4125 0.69-0.135 1.05-0.135c0.52 0 1.0275 0.09 1.5225 0.27 0.495 0.180001 0.8875 0.454998 1.1775 0.825zm1.68-0.48v-1.44h1.26v-2.085h1.77v2.085h1.8v1.44h-1.8v3.345c0 0.320002 0.0575 0.584999 0.1725 0.795s0.3725 0.315 0.7725 0.315c0.12 0 0.25-0.0125 0.39-0.0375s0.265-0.0625 0.375-0.1125l0.06 1.41c-0.16 0.06-0.35 0.1075-0.57 0.1425s-0.43 0.0525-0.63 0.0525c-0.48 0-0.87-0.0675-1.17-0.2025-0.3-0.135001-0.5375-0.319999-0.7125-0.555s-0.295-0.504999-0.36-0.81c-0.065-0.305002-0.0975-0.632498-0.0975-0.9825v-3.36zm11.205 1.44c0-0.230001-0.0325-0.449999-0.0975-0.66s-0.1675-0.394999-0.3075-0.555-0.3175-0.2875-0.5325-0.3825-0.4675-0.1425-0.7575-0.1425c-0.54 0-0.9975 0.162498-1.3725 0.4875s-0.5825 0.742497-0.6225 1.2525zm1.8 0.81v0.24c0 0.08-5e-3 0.16-0.015 0.24h-5.475c0.02 0.260001 0.0875 0.497499 0.2025 0.7125s0.2675 0.399999 0.4575 0.555 0.405 0.2775 0.645 0.3675 0.49 0.135 0.75 0.135c0.45 0 0.83-0.0825 1.14-0.2475 0.31-0.165001 0.565-0.392499 0.765-0.6825l1.2 0.96c-0.71 0.960005-1.73999 1.44-3.09 1.44-0.56 0-1.075-0.0875-1.545-0.2625-0.47-0.175001-0.8775-0.422498-1.2225-0.7425s-0.615-0.712498-0.81-1.1775-0.2925-0.992497-0.2925-1.5825c0-0.580003 0.0975-1.107498 0.2925-1.5825s0.4625-0.879998 0.8025-1.215 0.7425-0.594999 1.2075-0.78 0.9675-0.2775 1.5075-0.2775c0.5 0 0.9625 0.0825 1.3875 0.2475 0.425 0.165001 0.7925 0.409998 1.1025 0.735s0.5525 0.729998 0.7275 1.215 0.2625 1.052497 0.2625 1.7025zm3.57-7.83v5.055h0.045c0.09-0.120001 0.205-0.244999 0.345-0.375s0.3075-0.249999 0.5025-0.36 0.4225-0.2025 0.6825-0.2775 0.555-0.1125 0.885-0.1125c0.51 0 0.98 0.0975 1.41 0.2925 0.43 0.195001 0.8 0.462498 1.11 0.8025s0.55 0.739998 0.72 1.2 0.255 0.954997 0.255 1.485-0.0825 1.027498-0.2475 1.4925-0.4 0.869998-0.705 1.215-0.675 0.619999-1.11 0.825-0.9275 0.3075-1.4775 0.3075c-0.51 0-0.9875-0.109999-1.4325-0.33s-0.7925-0.539998-1.0425-0.96h-0.03v1.08h-1.71v-11.34zm4.125 7.71c0-0.280001-0.0425-0.557499-0.1275-0.8325s-0.2125-0.522499-0.3825-0.7425-0.385-0.397499-0.645-0.5325-0.565-0.2025-0.915-0.2025c-0.33 0-0.625 0.07-0.885 0.21-0.26 0.140001-0.4825 0.319999-0.6675 0.54s-0.325 0.469999-0.42 0.75-0.1425 0.559999-0.1425 0.84 0.0475 0.557499 0.1425 0.8325 0.235 0.522499 0.42 0.7425 0.4075 0.397499 0.6675 0.5325 0.555 0.2025 0.885 0.2025c0.35 0 0.655-0.07 0.915-0.21 0.26-0.140001 0.475-0.319999 0.645-0.54s0.2975-0.469999 0.3825-0.75 0.1275-0.559999 0.1275-0.84zm3.6-3.57h1.8v7.2h-1.8zm-0.255-2.445c0-0.290001 0.1075-0.542499 0.3225-0.7575s0.4875-0.3225 0.8175-0.3225 0.6075 0.102499 0.8325 0.3075 0.3375 0.462498 0.3375 0.7725-0.1125 0.567499-0.3375 0.7725-0.5025 0.3075-0.8325 0.3075-0.6025-0.107499-0.8175-0.3225-0.3225-0.467499-0.3225-0.7575zm4.245 2.445h1.71v1.155h0.03c0.16-0.360002 0.4375-0.677499 0.8325-0.9525s0.8625-0.4125 1.4025-0.4125c0.47 0 0.8725 0.0825 1.2075 0.2475 0.335 0.165001 0.61 0.382499 0.825 0.6525s0.3725 0.579998 0.4725 0.93 0.15 0.709998 0.15 1.08v4.5h-1.8v-3.99c0-0.210001-0.015-0.429999-0.045-0.66s-0.095-0.437499-0.195-0.6225-0.2375-0.337499-0.4125-0.4575-0.4075-0.18-0.6975-0.18-0.54 0.0575-0.75 0.1725c-0.21 0.115001-0.3825 0.262499-0.5175 0.4425s-0.2375 0.387499-0.3075 0.6225-0.105 0.472499-0.105 0.7125v3.96h-1.8z" fill-opacity=".7"/></g></svg>
