<?xml version="1.0" encoding="UTF-8"?>
<svg width="189px" height="59px" viewBox="0 0 189 59" version="1.1" xmlns="http://www.w3.org/2000/svg" xmlns:xlink="http://www.w3.org/1999/xlink">
    <!-- Generator: Sketch 50.2 (55047) - http://www.bohemiancoding.com/sketch -->
    <title>Group Copy</title>
    <desc>Created with Sketch.</desc>
    <defs></defs>
    <g id="Page-1" stroke="none" stroke-width="1" fill="none" fill-rule="evenodd">
        <g id="Group-Copy" fill="#FFFFFF">
            <path d="M19.286,35 L19.286,32.01 L19.194,32.01 C18.4579963,33.1753392 17.4076735,34.0723302 16.043,34.701 C14.6783265,35.3296698 13.229341,35.644 11.696,35.644 C9.97865808,35.644 8.44534008,35.30667 7.096,34.632 C5.74665992,33.95733 4.60433801,33.0603389 3.669,31.941 C2.73366199,30.8216611 2.02066912,29.5260074 1.53,28.054 C1.03933088,26.5819926 0.794,25.0486746 0.794,23.454 C0.794,21.8593254 1.04699747,20.3336739 1.553,18.877 C2.05900253,17.420326 2.77966199,16.1400055 3.715,15.036 C4.65033801,13.9319945 5.78499333,13.0580032 7.119,12.414 C8.45300667,11.7699968 9.94799172,11.448 11.604,11.448 C13.2906751,11.448 14.7166608,11.7699968 15.882,12.414 C17.0473392,13.0580032 17.9519968,13.7633295 18.596,14.53 L18.688,14.53 L18.688,0.224 L26.232,0.224 L26.232,35 L19.286,35 Z M19.01,23.5 C19.01,22.7639963 18.879668,22.0433369 18.619,21.338 C18.358332,20.6326631 17.9903357,20.0040028 17.515,19.452 C17.0396643,18.8999972 16.46467,18.455335 15.79,18.118 C15.11533,17.780665 14.348671,17.612 13.49,17.612 C12.6006622,17.612 11.81867,17.780665 11.144,18.118 C10.46933,18.455335 9.9020023,18.8923306 9.442,19.429 C8.9819977,19.9656693 8.63700115,20.5866631 8.407,21.292 C8.17699885,21.9973369 8.062,22.7179963 8.062,23.454 C8.062,24.1900037 8.17699885,24.9183297 8.407,25.639 C8.63700115,26.3596703 8.9819977,26.9959972 9.442,27.548 C9.9020023,28.1000028 10.46933,28.544665 11.144,28.882 C11.81867,29.219335 12.6006622,29.388 13.49,29.388 C14.348671,29.388 15.11533,29.219335 15.79,28.882 C16.46467,28.544665 17.0396643,28.1000028 17.515,27.548 C17.9903357,26.9959972 18.358332,26.3673369 18.619,25.662 C18.879668,24.9566631 19.01,24.2360037 19.01,23.5 Z M57.696,23.454 C57.696,25.0486746 57.4506691,26.5819926 56.96,28.054 C56.4693309,29.5260074 55.756338,30.8216611 54.821,31.941 C53.885662,33.0603389 52.7433401,33.95733 51.394,34.632 C50.0446599,35.30667 48.5113419,35.644 46.794,35.644 C45.3833263,35.644 44.0493396,35.3603362 42.792,34.793 C41.5346604,34.2256638 40.5533369,33.4513382 39.848,32.47 L39.756,32.47 L39.756,46.04 L32.212,46.04 L32.212,12.092 L39.388,12.092 L39.388,14.898 L39.526,14.898 C40.2313369,13.9779954 41.2049938,13.1730034 42.447,12.483 C43.6890062,11.7929965 45.1533249,11.448 46.84,11.448 C48.4960083,11.448 49.9986599,11.7699968 51.348,12.414 C52.6973401,13.0580032 53.839662,13.9319945 54.775,15.036 C55.710338,16.1400055 56.4309975,17.420326 56.937,18.877 C57.4430025,20.3336739 57.696,21.8593254 57.696,23.454 Z M50.382,23.454 C50.382,22.7179963 50.2670011,21.9973369 50.037,21.292 C49.8069988,20.5866631 49.4696689,19.9656693 49.025,19.429 C48.5803311,18.8923306 48.02067,18.455335 47.346,18.118 C46.67133,17.780665 45.8893378,17.612 45,17.612 C44.141329,17.612 43.37467,17.780665 42.7,18.118 C42.02533,18.455335 41.4503357,18.8999972 40.975,19.452 C40.4996643,20.0040028 40.131668,20.6326631 39.871,21.338 C39.610332,22.0433369 39.48,22.7639963 39.48,23.5 C39.48,24.2360037 39.610332,24.9566631 39.871,25.662 C40.131668,26.3673369 40.4996643,26.9959972 40.975,27.548 C41.4503357,28.1000028 42.02533,28.544665 42.7,28.882 C43.37467,29.219335 44.141329,29.388 45,29.388 C45.8893378,29.388 46.67133,29.219335 47.346,28.882 C48.02067,28.544665 48.5803311,28.1000028 49.025,27.548 C49.4696689,26.9959972 49.8069988,26.3596703 50.037,25.639 C50.2670011,24.9183297 50.382,24.1900037 50.382,23.454 Z M75.958,25.018 L74.992,25.018 C74.1639959,25.018 73.3283375,25.0563329 72.485,25.133 C71.6416624,25.209667 70.8903366,25.3553323 70.231,25.57 C69.5716634,25.7846677 69.0273355,26.0989979 68.598,26.513 C68.1686645,26.9270021 67.954,27.47133 67.954,28.146 C67.954,28.5753355 68.0536657,28.9433318 68.253,29.25 C68.4523343,29.5566682 68.7053318,29.8019991 69.012,29.986 C69.3186682,30.1700009 69.6713313,30.3003329 70.07,30.377 C70.4686687,30.453667 70.8519982,30.492 71.22,30.492 C72.753341,30.492 73.9263293,30.0703375 74.739,29.227 C75.5516707,28.3836624 75.958,27.2413405 75.958,25.8 L75.958,25.018 Z M62.112,15.22 C63.4613401,13.9319936 65.032991,12.9660032 66.827,12.322 C68.621009,11.6779968 70.453324,11.356 72.324,11.356 C74.2560097,11.356 75.8889933,11.5936643 77.223,12.069 C78.5570067,12.5443357 79.6379959,13.2803283 80.466,14.277 C81.2940041,15.2736716 81.8996647,16.5309924 82.283,18.049 C82.6663352,19.5670076 82.858,21.3686562 82.858,23.454 L82.858,35 L75.958,35 L75.958,32.562 L75.82,32.562 C75.2373304,33.5126714 74.3556726,34.2486641 73.175,34.77 C71.9943274,35.2913359 70.7140069,35.552 69.334,35.552 C68.4139954,35.552 67.4633382,35.4293346 66.482,35.184 C65.5006618,34.9386654 64.6036707,34.5400028 63.791,33.988 C62.9783293,33.4359972 62.3113359,32.7000046 61.79,31.78 C61.2686641,30.8599954 61.008,29.7253401 61.008,28.376 C61.008,26.7199917 61.4603288,25.3860051 62.365,24.374 C63.2696712,23.3619949 64.4349929,22.5800028 65.861,22.028 C67.2870071,21.4759972 68.8739913,21.1080009 70.622,20.924 C72.3700087,20.7399991 74.0719917,20.648 75.728,20.648 L75.728,20.28 C75.728,19.1453277 75.3293373,18.3096693 74.532,17.773 C73.7346627,17.2363306 72.7533392,16.968 71.588,16.968 C70.5146613,16.968 69.4796716,17.1979977 68.483,17.658 C67.4863283,18.1180023 66.6353369,18.6699968 65.93,19.314 L62.112,15.22 Z M101.948,18.854 C101.334664,18.2713304 100.614004,17.7806687 99.786,17.382 C98.9579959,16.9833313 98.0840046,16.784 97.164,16.784 C96.4586631,16.784 95.807003,16.9219986 95.209,17.198 C94.610997,17.4740014 94.312,17.94933 94.312,18.624 C94.312,19.2680032 94.6416634,19.7279986 95.301,20.004 C95.9603366,20.2800014 97.0259926,20.586665 98.498,20.924 C99.356671,21.1080009 100.222996,21.368665 101.097,21.706 C101.971004,22.043335 102.760663,22.4879972 103.466,23.04 C104.171337,23.5920028 104.738665,24.2666627 105.168,25.064 C105.597335,25.8613373 105.812,26.8119945 105.812,27.916 C105.812,29.3573405 105.52067,30.5763283 104.938,31.573 C104.35533,32.5696716 103.596338,33.3746636 102.661,33.988 C101.725662,34.6013364 100.675339,35.0459986 99.51,35.322 C98.3446608,35.5980014 97.1793392,35.736 96.014,35.736 C94.143324,35.736 92.311009,35.437003 90.517,34.839 C88.722991,34.240997 87.228006,33.3593392 86.032,32.194 L90.264,27.732 C90.93867,28.4680037 91.7666618,29.0813309 92.748,29.572 C93.7293382,30.0626691 94.7719945,30.308 95.876,30.308 C96.4893364,30.308 97.094997,30.1623348 97.693,29.871 C98.291003,29.5796652 98.59,29.0660037 98.59,28.33 C98.59,27.6246631 98.2220037,27.103335 97.486,26.766 C96.7499963,26.428665 95.6000078,26.0760018 94.036,25.708 C93.2386627,25.5239991 92.4413373,25.2786682 91.644,24.972 C90.8466627,24.6653318 90.1336698,24.2513359 89.505,23.73 C88.8763302,23.2086641 88.3626687,22.5646705 87.964,21.798 C87.5653313,21.0313295 87.366,20.1113387 87.366,19.038 C87.366,17.6579931 87.6573304,16.4850048 88.24,15.519 C88.8226696,14.5529952 89.5739954,13.7633364 90.494,13.15 C91.4140046,12.5366636 92.4336611,12.0843348 93.553,11.793 C94.6723389,11.5016652 95.7839945,11.356 96.888,11.356 C98.6053419,11.356 100.284325,11.6243306 101.925,12.161 C103.565675,12.6976693 104.953328,13.5026613 106.088,14.576 L101.948,18.854 Z M118.37,17.75 L118.37,26.49 C118.37,27.5633387 118.576998,28.3683306 118.991,28.905 C119.405002,29.4416693 120.148661,29.71 121.222,29.71 C121.590002,29.71 121.980998,29.6793336 122.395,29.618 C122.809002,29.5566664 123.153999,29.4646673 123.43,29.342 L123.522,34.862 C123.000664,35.0460009 122.341337,35.2069993 121.544,35.345 C120.746663,35.4830007 119.949337,35.552 119.152,35.552 C117.618659,35.552 116.330672,35.3603352 115.288,34.977 C114.245328,34.5936647 113.40967,34.0416703 112.781,33.321 C112.15233,32.6003297 111.700001,31.7416716 111.424,30.745 C111.147999,29.7483283 111.01,28.6366728 111.01,27.41 L111.01,17.75 L107.33,17.75 L107.33,12.092 L110.964,12.092 L110.964,6.066 L118.37,6.066 L118.37,12.092 L123.752,12.092 L123.752,17.75 L118.37,17.75 Z M143.072,20.924 C143.072,19.727994 142.696337,18.700671 141.945,17.842 C141.193663,16.983329 140.066674,16.554 138.564,16.554 C137.827996,16.554 137.153336,16.6689988 136.54,16.899 C135.926664,17.1290011 135.390002,17.4433313 134.93,17.842 C134.469998,18.2406687 134.102001,18.7083306 133.826,19.245 C133.549999,19.7816693 133.396667,20.3413304 133.366,20.924 L143.072,20.924 Z M150.018,23.822 L150.018,24.742 C150.018,25.0486682 150.002667,25.3399986 149.972,25.616 L133.366,25.616 C133.427334,26.2600032 133.618998,26.8426641 133.941,27.364 C134.263002,27.8853359 134.676997,28.3376647 135.183,28.721 C135.689003,29.1043352 136.25633,29.4033323 136.885,29.618 C137.51367,29.8326677 138.16533,29.94 138.84,29.94 C140.036006,29.94 141.047996,29.7176689 141.876,29.273 C142.704004,28.8283311 143.378664,28.2533369 143.9,27.548 L149.144,30.86 C148.070661,32.4240078 146.652342,33.6276624 144.889,34.471 C143.125658,35.3143375 141.078678,35.736 138.748,35.736 C137.030658,35.736 135.405341,35.4676693 133.872,34.931 C132.338659,34.3943306 130.997006,33.6123385 129.847,32.585 C128.696994,31.5576615 127.792337,30.2926742 127.133,28.79 C126.473663,27.2873258 126.144,25.5700097 126.144,23.638 C126.144,21.767324 126.465997,20.0730076 127.11,18.555 C127.754003,17.0369924 128.627994,15.7490053 129.732,14.691 C130.836006,13.6329947 132.139326,12.8126696 133.642,12.23 C135.144674,11.6473304 136.769991,11.356 138.518,11.356 C140.204675,11.356 141.753326,11.6396638 143.164,12.207 C144.574674,12.7743362 145.785995,13.5946613 146.798,14.668 C147.810005,15.7413387 148.599664,17.044659 149.167,18.578 C149.734336,20.111341 150.018,21.8593235 150.018,23.822 Z" id="dpaste-copy"></path>
            <path d="M47.795,49.24 L47.795,47.8 L49.055,47.8 L49.055,45.715 L50.825,45.715 L50.825,47.8 L52.625,47.8 L52.625,49.24 L50.825,49.24 L50.825,52.585 C50.825,52.9050016 50.8824994,53.169999 50.9975,53.38 C51.1125006,53.590001 51.369998,53.695 51.77,53.695 C51.8900006,53.695 52.0199993,53.6825001 52.16,53.6575 C52.3000007,53.6324999 52.4249994,53.5950002 52.535,53.545 L52.595,54.955 C52.4349992,55.0150003 52.2450011,55.0624998 52.025,55.0975 C51.8049989,55.1325002 51.595001,55.15 51.395,55.15 C50.9149976,55.15 50.5250015,55.0825007 50.225,54.9475 C49.9249985,54.8124993 49.6875009,54.6275012 49.5125,54.3925 C49.3374991,54.1574988 49.2175003,53.8875015 49.1525,53.5825 C49.0874997,53.2774985 49.055,52.9500017 49.055,52.6 L49.055,49.24 L47.795,49.24 Z M57.935,47.59 C58.4050023,47.59 58.8074983,47.6724992 59.1425,47.8375 C59.4775017,48.0025008 59.7524989,48.2199987 59.9675,48.49 C60.1825011,48.7600013 60.3399995,49.0699982 60.44,49.42 C60.5400005,49.7700017 60.59,50.1299981 60.59,50.5 L60.59,55 L58.79,55 L58.79,51.04 C58.79,50.829999 58.7750001,50.6125011 58.745,50.3875 C58.7149998,50.1624989 58.6525005,49.9575009 58.5575,49.7725 C58.4624995,49.5874991 58.3275009,49.4350006 58.1525,49.315 C57.9774991,49.1949994 57.7450014,49.135 57.455,49.135 C57.1649985,49.135 56.915001,49.1899995 56.705,49.3 C56.4949989,49.4100005 56.3200007,49.5574991 56.18,49.7425 C56.0399993,49.9275009 55.9350003,50.1349989 55.865,50.365 C55.7949996,50.5950012 55.76,50.8299988 55.76,51.07 L55.76,55 L53.96,55 L53.96,43.66 L55.76,43.66 L55.76,48.805 L55.79,48.805 C55.8600003,48.6549993 55.9624993,48.5075007 56.0975,48.3625 C56.2325007,48.2174993 56.3899991,48.0875006 56.57,47.9725 C56.7500009,47.8574994 56.9549988,47.7650004 57.185,47.695 C57.4150011,47.6249996 57.6649986,47.59 57.935,47.59 Z M67.76,50.68 C67.76,50.4499989 67.7275003,50.230001 67.6625,50.02 C67.5974997,49.809999 67.4950007,49.6250008 67.355,49.465 C67.2149993,49.3049992 67.0375011,49.1775005 66.8225,49.0825 C66.6074989,48.9874995 66.3550014,48.94 66.065,48.94 C65.5249973,48.94 65.0675019,49.1024984 64.6925,49.4275 C64.3174981,49.7525016 64.1100002,50.1699974 64.07,50.68 L67.76,50.68 Z M69.56,51.49 L69.56,51.73 C69.56,51.8100004 69.555,51.8899996 69.545,51.97 L64.07,51.97 C64.0900001,52.2300013 64.1574994,52.4674989 64.2725,52.6825 C64.3875006,52.8975011 64.539999,53.0824992 64.73,53.2375 C64.9200009,53.3925008 65.1349988,53.5149995 65.375,53.605 C65.6150012,53.6950005 65.8649987,53.74 66.125,53.74 C66.5750022,53.74 66.9549984,53.6575008 67.265,53.4925 C67.5750015,53.3274992 67.829999,53.1000015 68.03,52.81 L69.23,53.77 C68.5199964,54.7300048 67.4900067,55.21 66.14,55.21 C65.5799972,55.21 65.0650023,55.1225009 64.595,54.9475 C64.1249976,54.7724991 63.7175017,54.5250016 63.3725,54.205 C63.0274983,53.8849984 62.757501,53.4925023 62.5625,53.0275 C62.367499,52.5624977 62.27,52.0350029 62.27,51.445 C62.27,50.8649971 62.367499,50.3375024 62.5625,49.8625 C62.757501,49.3874976 63.0249983,48.9825017 63.365,48.6475 C63.7050017,48.3124983 64.1074977,48.0525009 64.5725,47.8675 C65.0375023,47.6824991 65.5399973,47.59 66.08,47.59 C66.5800025,47.59 67.0424979,47.6724992 67.4675,47.8375 C67.8925021,48.0025008 68.2599984,48.2474984 68.57,48.5725 C68.8800015,48.8975016 69.1224991,49.3024976 69.2975,49.7875 C69.4725009,50.2725024 69.56,50.8399967 69.56,51.49 Z M75.14,44.38 L78.905,44.38 C79.5950034,44.38 80.2899965,44.4699991 80.99,44.65 C81.6900035,44.8300009 82.3199972,45.1274979 82.88,45.5425 C83.4400028,45.9575021 83.8949982,46.5024966 84.245,47.1775 C84.5950017,47.8525034 84.77,48.689995 84.77,49.69 C84.77,50.6200046 84.5950017,51.4199967 84.245,52.09 C83.8949982,52.7600033 83.4400028,53.3099979 82.88,53.74 C82.3199972,54.1700022 81.6900035,54.487499 80.99,54.6925 C80.2899965,54.897501 79.5950034,55 78.905,55 L75.14,55 L75.14,44.38 Z M78.605,53.35 C79.0950024,53.35 79.5849975,53.2925006 80.075,53.1775 C80.5650024,53.0624994 81.007498,52.8675014 81.4025,52.5925 C81.797502,52.3174986 82.1199987,51.9450023 82.37,51.475 C82.6200012,51.0049976 82.745,50.4100036 82.745,49.69 C82.745,48.9299962 82.6200012,48.3100024 82.37,47.83 C82.1199987,47.3499976 81.797502,46.9750013 81.4025,46.705 C81.007498,46.4349986 80.5650024,46.2500005 80.075,46.15 C79.5849975,46.0499995 79.0950024,46 78.605,46 L77.03,46 L77.03,53.35 L78.605,53.35 Z M88.34,47.8 L88.34,55.435 C88.34,55.8650022 88.3050003,56.2724981 88.235,56.6575 C88.1649996,57.0425019 88.032501,57.3774986 87.8375,57.6625 C87.642499,57.9475014 87.3775017,58.1749992 87.0425,58.345 C86.7074983,58.5150008 86.2700027,58.6 85.73,58.6 C85.5799992,58.6 85.4300007,58.5900001 85.28,58.57 C85.1299992,58.5499999 85.0100004,58.5300001 84.92,58.51 L85.07,56.98 C85.1500004,57.0000001 85.2349995,57.015 85.325,57.025 C85.4150004,57.0350001 85.4949996,57.04 85.565,57.04 C85.775001,57.04 85.9449993,57.0000004 86.075,56.92 C86.2050006,56.8399996 86.3049996,56.7300007 86.375,56.59 C86.4450003,56.4499993 86.4899999,56.2875009 86.51,56.1025 C86.5300001,55.9174991 86.54,55.7200011 86.54,55.51 L86.54,47.8 L88.34,47.8 Z M86.285,45.355 C86.285,45.0649985 86.3924989,44.8125011 86.6075,44.5975 C86.8225011,44.3824989 87.0949983,44.275 87.425,44.275 C87.7550016,44.275 88.0324989,44.377499 88.2575,44.5825 C88.4825011,44.787501 88.595,45.0449985 88.595,45.355 C88.595,45.6650015 88.4825011,45.922499 88.2575,46.1275 C88.0324989,46.332501 87.7550016,46.435 87.425,46.435 C87.0949983,46.435 86.8225011,46.3275011 86.6075,46.1125 C86.3924989,45.8974989 86.285,45.6450014 86.285,45.355 Z M95,54.085 L94.955,54.085 C94.7749991,54.4050016 94.485002,54.667499 94.085,54.8725 C93.684998,55.077501 93.2300025,55.18 92.72,55.18 C92.4299985,55.18 92.1275016,55.1425004 91.8125,55.0675 C91.4974984,54.9924996 91.2075013,54.8675009 90.9425,54.6925 C90.6774987,54.5174991 90.4575009,54.2875014 90.2825,54.0025 C90.1074991,53.7174986 90.02,53.3650021 90.02,52.945 C90.02,52.4049973 90.1724985,51.9750016 90.4775,51.655 C90.7825015,51.3349984 91.1749976,51.0900009 91.655,50.92 C92.1350024,50.7499992 92.6674971,50.6375003 93.2525,50.5825 C93.8375029,50.5274997 94.4099972,50.5 94.97,50.5 L94.97,50.32 C94.97,49.8699977 94.8075016,49.5375011 94.4825,49.3225 C94.1574984,49.1074989 93.7700022,49 93.32,49 C92.9399981,49 92.5750017,49.0799992 92.225,49.24 C91.8749982,49.4000008 91.5850011,49.5949988 91.355,49.825 L90.425,48.73 C90.835002,48.3499981 91.3074973,48.0650009 91.8425,47.875 C92.3775027,47.6849991 92.9199972,47.59 93.47,47.59 C94.1100032,47.59 94.6374979,47.6799991 95.0525,47.86 C95.4675021,48.0400009 95.7949988,48.2749985 96.035,48.565 C96.2750012,48.8550015 96.4424995,49.1799982 96.5375,49.54 C96.6325005,49.9000018 96.68,50.2599982 96.68,50.62 L96.68,55 L95,55 L95,54.085 Z M94.97,51.715 L94.565,51.715 C94.2749985,51.715 93.9700016,51.7274999 93.65,51.7525 C93.3299984,51.7775001 93.0350013,51.8324996 92.765,51.9175 C92.4949986,52.0025004 92.2700009,52.1224992 92.09,52.2775 C91.9099991,52.4325008 91.82,52.6449986 91.82,52.915 C91.82,53.0850009 91.8574996,53.2274994 91.9325,53.3425 C92.0075004,53.4575006 92.1049994,53.5499997 92.225,53.62 C92.3450006,53.6900003 92.4799992,53.7399999 92.63,53.77 C92.7800007,53.8000002 92.9299992,53.815 93.08,53.815 C93.7000031,53.815 94.1699984,53.6500017 94.49,53.32 C94.8100016,52.9899984 94.97,52.5400029 94.97,51.97 L94.97,51.715 Z M98.78,47.8 L100.49,47.8 L100.49,48.955 L100.52,48.955 C100.680001,48.5949982 100.957498,48.2775014 101.3525,48.0025 C101.747502,47.7274986 102.214997,47.59 102.755,47.59 C103.225002,47.59 103.627498,47.6724992 103.9625,47.8375 C104.297502,48.0025008 104.572499,48.2199987 104.7875,48.49 C105.002501,48.7600013 105.159999,49.0699982 105.26,49.42 C105.36,49.7700017 105.41,50.1299981 105.41,50.5 L105.41,55 L103.61,55 L103.61,51.01 C103.61,50.799999 103.595,50.5800012 103.565,50.35 C103.535,50.1199989 103.47,49.9125009 103.37,49.7275 C103.269999,49.5424991 103.132501,49.3900006 102.9575,49.27 C102.782499,49.1499994 102.550001,49.09 102.26,49.09 C101.969999,49.09 101.720001,49.1474994 101.51,49.2625 C101.299999,49.3775006 101.127501,49.5249991 100.9925,49.705 C100.857499,49.8850009 100.755,50.0924988 100.685,50.3275 C100.615,50.5625012 100.58,50.7999988 100.58,51.04 L100.58,55 L98.78,55 L98.78,47.8 Z M114.83,47.8 L114.83,54.355 C114.83,55.0050033 114.750001,55.5924974 114.59,56.1175 C114.429999,56.6425026 114.182502,57.0874982 113.8475,57.4525 C113.512498,57.8175018 113.090003,58.099999 112.58,58.3 C112.069997,58.500001 111.465003,58.6 110.765,58.6 C110.474999,58.6 110.167502,58.5750003 109.8425,58.525 C109.517498,58.4749997 109.197502,58.4000005 108.8825,58.3 C108.567498,58.1999995 108.265001,58.0750008 107.975,57.925 C107.684999,57.7749993 107.425001,57.605001 107.195,57.415 L108.23,56.02 C108.580002,56.3500016 108.974998,56.6024991 109.415,56.7775 C109.855002,56.9525009 110.299998,57.04 110.75,57.04 C111.180002,57.04 111.542499,56.9775006 111.8375,56.8525 C112.132501,56.7274994 112.367499,56.5550011 112.5425,56.335 C112.717501,56.1149989 112.8425,55.8550015 112.9175,55.555 C112.9925,55.2549985 113.03,54.9250018 113.03,54.565 L113.03,54.04 L113,54.04 C112.739999,54.3900017 112.407502,54.6574991 112.0025,54.8425 C111.597498,55.0275009 111.145002,55.12 110.645,55.12 C110.104997,55.12 109.615002,55.020001 109.175,54.82 C108.734998,54.619999 108.362502,54.3500017 108.0575,54.01 C107.752498,53.6699983 107.515001,53.2725023 107.345,52.8175 C107.174999,52.3624977 107.09,51.8800026 107.09,51.37 C107.09,50.8499974 107.172499,50.3600023 107.3375,49.9 C107.502501,49.4399977 107.737498,49.0400017 108.0425,48.7 C108.347502,48.3599983 108.717498,48.090001 109.1525,47.89 C109.587502,47.689999 110.074997,47.59 110.615,47.59 C111.125003,47.59 111.599998,47.6949989 112.04,47.905 C112.480002,48.1150011 112.829999,48.4399978 113.09,48.88 L113.12,48.88 L113.12,47.8 L114.83,47.8 Z M110.99,49.06 C110.659998,49.06 110.367501,49.1199994 110.1125,49.24 C109.857499,49.3600006 109.642501,49.522499 109.4675,49.7275 C109.292499,49.932501 109.1575,50.1749986 109.0625,50.455 C108.9675,50.7350014 108.92,51.0349984 108.92,51.355 C108.92,51.6450014 108.9675,51.9249986 109.0625,52.195 C109.1575,52.4650014 109.292499,52.7074989 109.4675,52.9225 C109.642501,53.1375011 109.857499,53.3099993 110.1125,53.44 C110.367501,53.5700006 110.654998,53.635 110.975,53.635 C111.305002,53.635 111.602499,53.5725006 111.8675,53.4475 C112.132501,53.3224994 112.357499,53.155001 112.5425,52.945 C112.727501,52.7349989 112.869999,52.4925014 112.97,52.2175 C113.07,51.9424986 113.12,51.6550015 113.12,51.355 C113.12,51.0449985 113.07,50.7500014 112.97,50.47 C112.869999,50.1899986 112.727501,49.9450011 112.5425,49.735 C112.357499,49.5249989 112.135001,49.3600006 111.875,49.24 C111.614999,49.1199994 111.320002,49.06 110.99,49.06 Z M116.57,51.37 C116.57,50.7999972 116.672499,50.2825023 116.8775,49.8175 C117.082501,49.3524977 117.359998,48.9550016 117.71,48.625 C118.060002,48.2949984 118.474998,48.0400009 118.955,47.86 C119.435002,47.6799991 119.944997,47.59 120.485,47.59 C121.025003,47.59 121.534998,47.6799991 122.015,47.86 C122.495002,48.0400009 122.909998,48.2949984 123.26,48.625 C123.610002,48.9550016 123.887499,49.3524977 124.0925,49.8175 C124.297501,50.2825023 124.4,50.7999972 124.4,51.37 C124.4,51.9400028 124.297501,52.4599976 124.0925,52.93 C123.887499,53.4000024 123.610002,53.8024983 123.26,54.1375 C122.909998,54.4725017 122.495002,54.734999 122.015,54.925 C121.534998,55.1150009 121.025003,55.21 120.485,55.21 C119.944997,55.21 119.435002,55.1150009 118.955,54.925 C118.474998,54.734999 118.060002,54.4725017 117.71,54.1375 C117.359998,53.8024983 117.082501,53.4000024 116.8775,52.93 C116.672499,52.4599976 116.57,51.9400028 116.57,51.37 Z M118.4,51.37 C118.4,51.6500014 118.4425,51.9299986 118.5275,52.21 C118.6125,52.4900014 118.739999,52.7399989 118.91,52.96 C119.080001,53.1800011 119.294999,53.3599993 119.555,53.5 C119.815001,53.6400007 120.124998,53.71 120.485,53.71 C120.845002,53.71 121.154999,53.6400007 121.415,53.5 C121.675001,53.3599993 121.889999,53.1800011 122.06,52.96 C122.230001,52.7399989 122.3575,52.4900014 122.4425,52.21 C122.5275,51.9299986 122.57,51.6500014 122.57,51.37 C122.57,51.0899986 122.5275,50.8125014 122.4425,50.5375 C122.3575,50.2624986 122.230001,50.0150011 122.06,49.795 C121.889999,49.5749989 121.675001,49.3975007 121.415,49.2625 C121.154999,49.1274993 120.845002,49.06 120.485,49.06 C120.124998,49.06 119.815001,49.1274993 119.555,49.2625 C119.294999,49.3975007 119.080001,49.5749989 118.91,49.795 C118.739999,50.0150011 118.6125,50.2624986 118.5275,50.5375 C118.4425,50.8125014 118.4,51.0899986 118.4,51.37 Z M131.615,47.8 L131.615,48.805 L131.66,48.805 C131.75,48.6649993 131.867499,48.5225007 132.0125,48.3775 C132.157501,48.2324993 132.334999,48.1025006 132.545,47.9875 C132.755001,47.8724994 132.992499,47.7775004 133.2575,47.7025 C133.522501,47.6274996 133.819998,47.59 134.15,47.59 C134.660003,47.59 135.129998,47.687499 135.56,47.8825 C135.990002,48.077501 136.359998,48.3449983 136.67,48.685 C136.980002,49.0250017 137.219999,49.4249977 137.39,49.885 C137.560001,50.3450023 137.645,50.8399973 137.645,51.37 C137.645,51.9000026 137.562501,52.3974977 137.3975,52.8625 C137.232499,53.3275023 136.997502,53.7324983 136.6925,54.0775 C136.387498,54.4225017 136.017502,54.697499 135.5825,54.9025 C135.147498,55.107501 134.655003,55.21 134.105,55.21 C133.594997,55.21 133.127502,55.105001 132.7025,54.895 C132.277498,54.684999 131.950001,54.4000018 131.72,54.04 L131.69,54.04 L131.69,58.6 L129.89,58.6 L129.89,47.8 L131.615,47.8 Z M135.815,51.37 C135.815,51.0899986 135.7725,50.8125014 135.6875,50.5375 C135.6025,50.2624986 135.475001,50.0150011 135.305,49.795 C135.134999,49.5749989 134.920001,49.3975007 134.66,49.2625 C134.399999,49.1274993 134.095002,49.06 133.745,49.06 C133.414998,49.06 133.120001,49.1299993 132.86,49.27 C132.599999,49.4100007 132.377501,49.5899989 132.1925,49.81 C132.007499,50.0300011 131.8675,50.2799986 131.7725,50.56 C131.6775,50.8400014 131.63,51.1199986 131.63,51.4 C131.63,51.6800014 131.6775,51.9574986 131.7725,52.2325 C131.8675,52.5075014 132.007499,52.7549989 132.1925,52.975 C132.377501,53.1950011 132.599999,53.3724993 132.86,53.5075 C133.120001,53.6425007 133.414998,53.71 133.745,53.71 C134.095002,53.71 134.399999,53.6400007 134.66,53.5 C134.920001,53.3599993 135.134999,53.1800011 135.305,52.96 C135.475001,52.7399989 135.6025,52.4900014 135.6875,52.21 C135.7725,51.9299986 135.815,51.6500014 135.815,51.37 Z M143.855,54.085 L143.81,54.085 C143.629999,54.4050016 143.340002,54.667499 142.94,54.8725 C142.539998,55.077501 142.085003,55.18 141.575,55.18 C141.284999,55.18 140.982502,55.1425004 140.6675,55.0675 C140.352498,54.9924996 140.062501,54.8675009 139.7975,54.6925 C139.532499,54.5174991 139.312501,54.2875014 139.1375,54.0025 C138.962499,53.7174986 138.875,53.3650021 138.875,52.945 C138.875,52.4049973 139.027498,51.9750016 139.3325,51.655 C139.637502,51.3349984 140.029998,51.0900009 140.51,50.92 C140.990002,50.7499992 141.522497,50.6375003 142.1075,50.5825 C142.692503,50.5274997 143.264997,50.5 143.825,50.5 L143.825,50.32 C143.825,49.8699977 143.662502,49.5375011 143.3375,49.3225 C143.012498,49.1074989 142.625002,49 142.175,49 C141.794998,49 141.430002,49.0799992 141.08,49.24 C140.729998,49.4000008 140.440001,49.5949988 140.21,49.825 L139.28,48.73 C139.690002,48.3499981 140.162497,48.0650009 140.6975,47.875 C141.232503,47.6849991 141.774997,47.59 142.325,47.59 C142.965003,47.59 143.492498,47.6799991 143.9075,47.86 C144.322502,48.0400009 144.649999,48.2749985 144.89,48.565 C145.130001,48.8550015 145.2975,49.1799982 145.3925,49.54 C145.4875,49.9000018 145.535,50.2599982 145.535,50.62 L145.535,55 L143.855,55 L143.855,54.085 Z M143.825,51.715 L143.42,51.715 C143.129999,51.715 142.825002,51.7274999 142.505,51.7525 C142.184998,51.7775001 141.890001,51.8324996 141.62,51.9175 C141.349999,52.0025004 141.125001,52.1224992 140.945,52.2775 C140.764999,52.4325008 140.675,52.6449986 140.675,52.915 C140.675,53.0850009 140.7125,53.2274994 140.7875,53.3425 C140.8625,53.4575006 140.959999,53.5499997 141.08,53.62 C141.200001,53.6900003 141.334999,53.7399999 141.485,53.77 C141.635001,53.8000002 141.784999,53.815 141.935,53.815 C142.555003,53.815 143.024998,53.6500017 143.345,53.32 C143.665002,52.9899984 143.825,52.5400029 143.825,51.97 L143.825,51.715 Z M151.58,49.72 C151.419999,49.5099989 151.200001,49.3275008 150.92,49.1725 C150.639999,49.0174992 150.335002,48.94 150.005,48.94 C149.714999,48.94 149.450001,48.9999994 149.21,49.12 C148.969999,49.2400006 148.85,49.4399986 148.85,49.72 C148.85,50.0000014 148.982499,50.1974994 149.2475,50.3125 C149.512501,50.4275006 149.899997,50.5449994 150.41,50.665 C150.680001,50.7250003 150.952499,50.8049995 151.2275,50.905 C151.502501,51.0050005 151.752499,51.1374992 151.9775,51.3025 C152.202501,51.4675008 152.384999,51.6724988 152.525,51.9175 C152.665001,52.1625012 152.735,52.4599982 152.735,52.81 C152.735,53.2500022 152.652501,53.6224985 152.4875,53.9275 C152.322499,54.2325015 152.102501,54.4799991 151.8275,54.67 C151.552499,54.8600009 151.232502,54.9974996 150.8675,55.0825 C150.502498,55.1675004 150.125002,55.21 149.735,55.21 C149.174997,55.21 148.630003,55.107501 148.1,54.9025 C147.569997,54.697499 147.130002,54.4050019 146.78,54.025 L147.965,52.915 C148.165001,53.1750013 148.424998,53.3899992 148.745,53.56 C149.065002,53.7300008 149.419998,53.815 149.81,53.815 C149.940001,53.815 150.072499,53.8000002 150.2075,53.77 C150.342501,53.7399999 150.467499,53.6925003 150.5825,53.6275 C150.697501,53.5624997 150.79,53.4750006 150.86,53.365 C150.93,53.2549994 150.965,53.1200008 150.965,52.96 C150.965,52.6599985 150.827501,52.4450006 150.5525,52.315 C150.277499,52.1849993 149.865003,52.0550006 149.315,51.925 C149.044999,51.8649997 148.782501,51.7875005 148.5275,51.6925 C148.272499,51.5974995 148.045001,51.4725008 147.845,51.3175 C147.644999,51.1624992 147.485001,50.9700012 147.365,50.74 C147.244999,50.5099989 147.185,50.2250017 147.185,49.885 C147.185,49.484998 147.267499,49.1400014 147.4325,48.85 C147.597501,48.5599986 147.814999,48.3225009 148.085,48.1375 C148.355001,47.9524991 148.659998,47.8150004 149,47.725 C149.340002,47.6349996 149.689998,47.59 150.05,47.59 C150.570003,47.59 151.077498,47.6799991 151.5725,47.86 C152.067502,48.0400009 152.459999,48.3149982 152.75,48.685 L151.58,49.72 Z M153.26,49.24 L153.26,47.8 L154.52,47.8 L154.52,45.715 L156.29,45.715 L156.29,47.8 L158.09,47.8 L158.09,49.24 L156.29,49.24 L156.29,52.585 C156.29,52.9050016 156.347499,53.169999 156.4625,53.38 C156.577501,53.590001 156.834998,53.695 157.235,53.695 C157.355001,53.695 157.484999,53.6825001 157.625,53.6575 C157.765001,53.6324999 157.889999,53.5950002 158,53.545 L158.06,54.955 C157.899999,55.0150003 157.710001,55.0624998 157.49,55.0975 C157.269999,55.1325002 157.060001,55.15 156.86,55.15 C156.379998,55.15 155.990001,55.0825007 155.69,54.9475 C155.389998,54.8124993 155.152501,54.6275012 154.9775,54.3925 C154.802499,54.1574988 154.6825,53.8875015 154.6175,53.5825 C154.5525,53.2774985 154.52,52.9500017 154.52,52.6 L154.52,49.24 L153.26,49.24 Z M164.465,50.68 C164.465,50.4499989 164.4325,50.230001 164.3675,50.02 C164.3025,49.809999 164.200001,49.6250008 164.06,49.465 C163.919999,49.3049992 163.742501,49.1775005 163.5275,49.0825 C163.312499,48.9874995 163.060001,48.94 162.77,48.94 C162.229997,48.94 161.772502,49.1024984 161.3975,49.4275 C161.022498,49.7525016 160.815,50.1699974 160.775,50.68 L164.465,50.68 Z M166.265,51.49 L166.265,51.73 C166.265,51.8100004 166.26,51.8899996 166.25,51.97 L160.775,51.97 C160.795,52.2300013 160.862499,52.4674989 160.9775,52.6825 C161.092501,52.8975011 161.244999,53.0824992 161.435,53.2375 C161.625001,53.3925008 161.839999,53.5149995 162.08,53.605 C162.320001,53.6950005 162.569999,53.74 162.83,53.74 C163.280002,53.74 163.659998,53.6575008 163.97,53.4925 C164.280002,53.3274992 164.534999,53.1000015 164.735,52.81 L165.935,53.77 C165.224996,54.7300048 164.195007,55.21 162.845,55.21 C162.284997,55.21 161.770002,55.1225009 161.3,54.9475 C160.829998,54.7724991 160.422502,54.5250016 160.0775,54.205 C159.732498,53.8849984 159.462501,53.4925023 159.2675,53.0275 C159.072499,52.5624977 158.975,52.0350029 158.975,51.445 C158.975,50.8649971 159.072499,50.3375024 159.2675,49.8625 C159.462501,49.3874976 159.729998,48.9825017 160.07,48.6475 C160.410002,48.3124983 160.812498,48.0525009 161.2775,47.8675 C161.742502,47.6824991 162.244997,47.59 162.785,47.59 C163.285002,47.59 163.747498,47.6724992 164.1725,47.8375 C164.597502,48.0025008 164.964998,48.2474984 165.275,48.5725 C165.585002,48.8975016 165.827499,49.3024976 166.0025,49.7875 C166.177501,50.2725024 166.265,50.8399967 166.265,51.49 Z M169.835,43.66 L169.835,48.715 L169.88,48.715 C169.97,48.5949994 170.084999,48.4700007 170.225,48.34 C170.365001,48.2099994 170.532499,48.0900005 170.7275,47.98 C170.922501,47.8699995 171.149999,47.7775004 171.41,47.7025 C171.670001,47.6274996 171.964998,47.59 172.295,47.59 C172.805003,47.59 173.274998,47.687499 173.705,47.8825 C174.135002,48.077501 174.504998,48.3449983 174.815,48.685 C175.125002,49.0250017 175.364999,49.4249977 175.535,49.885 C175.705001,50.3450023 175.79,50.8399973 175.79,51.37 C175.79,51.9000026 175.707501,52.3974977 175.5425,52.8625 C175.377499,53.3275023 175.142502,53.7324983 174.8375,54.0775 C174.532498,54.4225017 174.162502,54.697499 173.7275,54.9025 C173.292498,55.107501 172.800003,55.21 172.25,55.21 C171.739997,55.21 171.262502,55.1000011 170.8175,54.88 C170.372498,54.6599989 170.025001,54.3400021 169.775,53.92 L169.745,53.92 L169.745,55 L168.035,55 L168.035,43.66 L169.835,43.66 Z M173.96,51.37 C173.96,51.0899986 173.9175,50.8125014 173.8325,50.5375 C173.7475,50.2624986 173.620001,50.0150011 173.45,49.795 C173.279999,49.5749989 173.065001,49.3975007 172.805,49.2625 C172.544999,49.1274993 172.240002,49.06 171.89,49.06 C171.559998,49.06 171.265001,49.1299993 171.005,49.27 C170.744999,49.4100007 170.522501,49.5899989 170.3375,49.81 C170.152499,50.0300011 170.0125,50.2799986 169.9175,50.56 C169.8225,50.8400014 169.775,51.1199986 169.775,51.4 C169.775,51.6800014 169.8225,51.9574986 169.9175,52.2325 C170.0125,52.5075014 170.152499,52.7549989 170.3375,52.975 C170.522501,53.1950011 170.744999,53.3724993 171.005,53.5075 C171.265001,53.6425007 171.559998,53.71 171.89,53.71 C172.240002,53.71 172.544999,53.6400007 172.805,53.5 C173.065001,53.3599993 173.279999,53.1800011 173.45,52.96 C173.620001,52.7399989 173.7475,52.4900014 173.8325,52.21 C173.9175,51.9299986 173.96,51.6500014 173.96,51.37 Z M177.56,47.8 L179.36,47.8 L179.36,55 L177.56,55 L177.56,47.8 Z M177.305,45.355 C177.305,45.0649985 177.412499,44.8125011 177.6275,44.5975 C177.842501,44.3824989 178.114998,44.275 178.445,44.275 C178.775002,44.275 179.052499,44.377499 179.2775,44.5825 C179.502501,44.787501 179.615,45.0449985 179.615,45.355 C179.615,45.6650015 179.502501,45.922499 179.2775,46.1275 C179.052499,46.332501 178.775002,46.435 178.445,46.435 C178.114998,46.435 177.842501,46.3275011 177.6275,46.1125 C177.412499,45.8974989 177.305,45.6450014 177.305,45.355 Z M181.55,47.8 L183.26,47.8 L183.26,48.955 L183.29,48.955 C183.450001,48.5949982 183.727498,48.2775014 184.1225,48.0025 C184.517502,47.7274986 184.984997,47.59 185.525,47.59 C185.995002,47.59 186.397498,47.6724992 186.7325,47.8375 C187.067502,48.0025008 187.342499,48.2199987 187.5575,48.49 C187.772501,48.7600013 187.929999,49.0699982 188.03,49.42 C188.13,49.7700017 188.18,50.1299981 188.18,50.5 L188.18,55 L186.38,55 L186.38,51.01 C186.38,50.799999 186.365,50.5800012 186.335,50.35 C186.305,50.1199989 186.24,49.9125009 186.14,49.7275 C186.039999,49.5424991 185.902501,49.3900006 185.7275,49.27 C185.552499,49.1499994 185.320001,49.09 185.03,49.09 C184.739999,49.09 184.490001,49.1474994 184.28,49.2625 C184.069999,49.3775006 183.897501,49.5249991 183.7625,49.705 C183.627499,49.8850009 183.525,50.0924988 183.455,50.3275 C183.385,50.5625012 183.35,50.7999988 183.35,51.04 L183.35,55 L181.55,55 L181.55,47.8 Z" id="the-Django-pastebin" fill-opacity="0.699999988"></path>
        </g>
    </g>
</svg>